<svg xmlns="http://www.w3.org/2000/svg" xmlns:xlink="http://www.w3.org/1999/xlink" viewBox="0 0 600 500"><defs><style>.cls-1,.cls-22,.cls-23,.cls-32,.cls-35,.cls-38,.cls-39,.cls-41,.cls-42{fill:none;}.cls-2{isolation:isolate;}.cls-3{fill:#f5c64a;opacity:0;}.cls-4{fill:#101922;}.cls-5{fill:url(#未命名的渐变_6);}.cls-6{fill:#040000;}.cls-7{fill:url(#未命名的渐变_6-2);}.cls-8{fill:#e7825b;}.cls-10,.cls-30,.cls-47,.cls-9{opacity:0.2;}.cls-10,.cls-13,.cls-14,.cls-15,.cls-16,.cls-17,.cls-18,.cls-19,.cls-26,.cls-43,.cls-44,.cls-45,.cls-46,.cls-50,.cls-51,.cls-52,.cls-53,.cls-54,.cls-9{mix-blend-mode:overlay;}.cls-9{fill:url(#未命名的渐变_8);}.cls-10{fill:url(#未命名的渐变_10);}.cls-11{fill:#fff;}.cls-12,.cls-20,.cls-24{opacity:0.05;mix-blend-mode:multiply;}.cls-12{fill:url(#未命名的渐变_5);}.cls-13,.cls-40{opacity:0.5;}.cls-13{fill:url(#未命名的渐变_8-3);}.cls-14{fill:url(#未命名的渐变_8-4);}.cls-15{fill:url(#未命名的渐变_8-5);}.cls-16{fill:url(#未命名的渐变_8-6);}.cls-17{fill:url(#未命名的渐变_8-7);}.cls-18{fill:url(#未命名的渐变_8-8);}.cls-19,.cls-43,.cls-44,.cls-45,.cls-46,.cls-51,.cls-52,.cls-53,.cls-54{opacity:0.6;}.cls-19{fill:url(#未命名的渐变_2);}.cls-20{fill:url(#未命名的渐变_5-2);}.cls-21{fill:#b44336;}.cls-22{stroke:#b44336;stroke-width:1.84px;}.cls-22,.cls-23,.cls-32,.cls-35,.cls-38,.cls-39,.cls-41,.cls-42{stroke-linecap:round;}.cls-22,.cls-23,.cls-35,.cls-38,.cls-39,.cls-41,.cls-42{stroke-miterlimit:10;}.cls-23{stroke:#060e15;stroke-width:2px;}.cls-24{fill:url(#未命名的渐变_5-3);}.cls-25{clip-path:url(#clip-path);}.cls-26{fill:url(#未命名的渐变_8-9);}.cls-27{fill:url(#未命名的渐变_6-3);}.cls-28{fill:url(#未命名的渐变_7);}.cls-29{fill:url(#未命名的渐变_6-4);}.cls-30{mix-blend-mode:hard-light;fill:url(#未命名的渐变_4);}.cls-31{fill:#95516a;}.cls-32{stroke:#95516a;stroke-linejoin:bevel;}.cls-32,.cls-35{stroke-width:2.06px;}.cls-33{fill:url(#未命名的渐变_4-3);}.cls-34{fill:url(#未命名的渐变_4-4);}.cls-35{stroke:#898e91;}.cls-36{fill:url(#未命名的渐变_4-5);}.cls-37{fill:#f3b1c1;}.cls-38,.cls-39,.cls-41,.cls-42{stroke:#fff;}.cls-38{stroke-width:0.8px;}.cls-39{stroke-width:0.78px;}.cls-41{stroke-width:0.58px;}.cls-42{stroke-width:0.56px;}.cls-43{fill:url(#未命名的渐变_2-2);}.cls-44{fill:url(#未命名的渐变_2-3);}.cls-45{fill:url(#未命名的渐变_2-4);}.cls-46{fill:url(#未命名的渐变_2-5);}.cls-47,.cls-48{fill:#eceded;}.cls-49{fill:#e2e1e1;}.cls-50{fill:url(#未命名的渐变_2-6);}.cls-51{fill:url(#未命名的渐变_5-4);}.cls-52{fill:url(#未命名的渐变_5-5);}.cls-53{fill:url(#未命名的渐变_5-6);}.cls-54{fill:url(#未命名的渐变_5-7);}</style><linearGradient id="未命名的渐变_6" x1="126.22" y1="62.39" x2="344.94" y2="62.39" gradientUnits="userSpaceOnUse"><stop offset="0" stop-color="#040000"/><stop offset="0.5" stop-color="#0b1623" stop-opacity="0.6"/><stop offset="1" stop-color="#0f2237" stop-opacity="0"/></linearGradient><linearGradient id="未命名的渐变_6-2" x1="325.95" y1="248.96" x2="431.52" y2="143.39" xlink:href="#未命名的渐变_6"/><linearGradient id="未命名的渐变_8" x1="469.35" y1="342.89" x2="150.9" y2="342.89" gradientUnits="userSpaceOnUse"><stop offset="0" stop-color="#040000"/><stop offset="1" stop-color="#0f2237" stop-opacity="0"/></linearGradient><linearGradient id="未命名的渐变_10" x1="470.03" y1="239.22" x2="250.19" y2="366.15" gradientUnits="userSpaceOnUse"><stop offset="0" stop-color="#040000"/><stop offset="0.93" stop-color="#0f2237" stop-opacity="0"/></linearGradient><linearGradient id="未命名的渐变_5" x1="264.97" y1="249.35" x2="264.97" y2="402.56" xlink:href="#未命名的渐变_8"/><linearGradient id="未命名的渐变_8-3" x1="296.94" y1="438.71" x2="511.11" y2="438.71" xlink:href="#未命名的渐变_8"/><linearGradient id="未命名的渐变_8-4" x1="262.82" y1="262.32" x2="136.97" y2="189.66" xlink:href="#未命名的渐变_8"/><linearGradient id="未命名的渐变_8-5" x1="211.67" y1="195.25" x2="211.67" y2="120.08" gradientTransform="translate(186.59 -105.08) rotate(47.87)" xlink:href="#未命名的渐变_8"/><linearGradient id="未命名的渐变_8-6" x1="211.67" y1="189.28" x2="211.67" y2="126.05" gradientTransform="translate(186.59 -105.08) rotate(47.87)" xlink:href="#未命名的渐变_8"/><linearGradient id="未命名的渐变_8-7" x1="161.31" y1="250.87" x2="108.75" y2="159.84" gradientTransform="translate(63.88 -29.89) rotate(16.5)" xlink:href="#未命名的渐变_8"/><linearGradient id="未命名的渐变_8-8" x1="157.01" y1="243.43" x2="113.05" y2="167.28" gradientTransform="translate(63.88 -29.89) rotate(16.5)" xlink:href="#未命名的渐变_8"/><radialGradient id="未命名的渐变_2" cx="195.31" cy="219.74" r="77.52" xlink:href="#未命名的渐变_8"/><linearGradient id="未命名的渐变_5-2" x1="242.85" y1="271.62" x2="169.42" y2="198.18" xlink:href="#未命名的渐变_8"/><linearGradient id="未命名的渐变_5-3" x1="64.35" y1="296.4" x2="107.86" y2="296.4" xlink:href="#未命名的渐变_8"/><clipPath id="clip-path"><path class="cls-1" d="M150.9,284.78S162.44,362.9,211.4,424c36,40.83,77.82,50.38,103.34,34.2,0,0,13.89-.45,26.68-6.25s14.59-13.38,16-64.37c0,0,9.07-19.4,30.35-25.11a9.89,9.89,0,0,0,11,5.62c8.25-1.3,54.62-30.34,67.35-46.8,0,0,11.34-14.94-8.5-16C442.13,304.53,410,329.4,410,329.4a45.71,45.71,0,0,0-31.28-38.35c-10.45-3.6-38.83-1.21-53,12.57,0,0-19.63-7.58-29.11-23.66,0,0,21.65.28,38-1.17,7.72-.68,33.95-3.35,34.4-13.27.4-9-6.43-12.31-33.59-17.51-15-2.86-37.88-8-56.09-16.81-3.86-1.86-11.29-8.29-12.77-11.1Z"/></clipPath><linearGradient id="未命名的渐变_8-9" x1="304.02" y1="276.98" x2="530.64" y2="276.98" xlink:href="#未命名的渐变_8"/><linearGradient id="未命名的渐变_6-3" x1="463.84" y1="-44" x2="539.4" y2="-119.55" gradientTransform="translate(-169.73 280.82) rotate(7.95)" xlink:href="#未命名的渐变_6"/><linearGradient id="未命名的渐变_7" x1="386.95" y1="312.93" x2="411.22" y2="354.98" gradientUnits="userSpaceOnUse"><stop offset="0" stop-color="#040000"/><stop offset="1" stop-color="#0f2237"/></linearGradient><linearGradient id="未命名的渐变_6-4" x1="497.44" y1="264.79" x2="339.7" y2="264.79" xlink:href="#未命名的渐变_6"/><linearGradient id="未命名的渐变_4" x1="463.99" y1="346.71" x2="371.23" y2="186.05" gradientUnits="userSpaceOnUse"><stop offset="0" stop-color="#515184"/><stop offset="1" stop-color="#924354"/></linearGradient><linearGradient id="未命名的渐变_4-3" x1="483.28" y1="285.56" x2="535.65" y2="285.56" xlink:href="#未命名的渐变_4"/><linearGradient id="未命名的渐变_4-4" x1="488.48" y1="288.88" x2="535.65" y2="288.88" xlink:href="#未命名的渐变_4"/><linearGradient id="未命名的渐变_4-5" x1="420.03" y1="211.27" x2="505.9" y2="211.27" xlink:href="#未命名的渐变_4"/><radialGradient id="未命名的渐变_2-2" cx="87.65" cy="293.79" r="6.97" xlink:href="#未命名的渐变_8"/><radialGradient id="未命名的渐变_2-3" cx="76.83" cy="288.57" r="3.26" xlink:href="#未命名的渐变_8"/><radialGradient id="未命名的渐变_2-4" cx="81.68" cy="283.04" r="2.89" xlink:href="#未命名的渐变_8"/><radialGradient id="未命名的渐变_2-5" cx="76.78" cy="296.41" r="2.79" xlink:href="#未命名的渐变_8"/><radialGradient id="未命名的渐变_2-6" cx="362.37" cy="409.7" r="32.54" xlink:href="#未命名的渐变_8"/><linearGradient id="未命名的渐变_5-4" x1="363.79" y1="388.94" x2="368.63" y2="388.94" xlink:href="#未命名的渐变_8"/><linearGradient id="未命名的渐变_5-5" x1="368.89" y1="378.14" x2="370.7" y2="378.14" xlink:href="#未命名的渐变_8"/><linearGradient id="未命名的渐变_5-6" x1="367" y1="376.6" x2="369.33" y2="376.6" xlink:href="#未命名的渐变_8"/><linearGradient id="未命名的渐变_5-7" x1="365.08" y1="377.39" x2="367.48" y2="377.39" xlink:href="#未命名的渐变_8"/></defs><g class="cls-2"><g id="图层_2" data-name="图层 2"><g id="图层_1-2" data-name="图层 1"><rect class="cls-3" width="600" height="500"/><path class="cls-4" d="M344.94,76.29S294,57.15,241.4,72.35c-61,17.64-65.8-24-74.76-51C157.91-5,107.79-1.1,133.46,68c22.53,60.63,71.38,53.35,92.94,44.94C261.17,99.37,293,87.74,325.63,96.85Z"/><path class="cls-5" d="M344.94,76.29S294,57.15,241.4,72.35c-61,17.64-65.8-24-74.76-51C157.91-5,107.79-1.1,133.46,68c22.53,60.63,71.38,53.35,92.94,44.94C261.17,99.37,293,87.74,325.63,96.85Z"/><path class="cls-6" d="M419.89,179.45c2.57,18.43-12.67,69.32-62.19,70.25-13.89.26-41.93-5-58.78-20.57,0,0,1.29,38.54-8.22,45.38-15,10.76-20.14-16.52-21.48-25.91-3.61-25.43-5.83-35.89-5.61-58.48.11-11.3,23.48-7.85,23.48-7.85,23.7-25.67,53.06-48.93,82.36-56.88C369.45,125.39,412.42,125.79,419.89,179.45Z"/><path class="cls-4" d="M498.47,285.33s8.65-57.58-85.79-160.41C347.71,54.18,296,63.56,267.47,99.34c-17,21.34-29.65,35.47-43.75,44.65,30.34,19.39,59.45,58.66,59.45,58.66s48.67,34.94,49.19,52.73Z"/><path class="cls-7" d="M498.47,285.33s8.65-57.58-85.79-160.41C347.71,54.18,296,63.56,267.47,99.34c-17,21.34-29.65,35.47-43.75,44.65,30.34,19.39,59.45,58.66,59.45,58.66s48.67,34.94,49.19,52.73Z"/><path class="cls-4" d="M345.91,139.45c-.12,20.88-15,82.76-70.58,83.8-15.59.29-46.27-10.6-65.18-28.05,0,0,1.66,39.42-9,47.09-16.79,12.08-23.79-21.68-25.33-32.22-2.23-15.29-6.78-45.25-4.4-62.37,1.94-13.93,17.07-11.53,25.46-5.09,26.6-28.8,80.57-65.43,113.46-74.35C310.33,68.26,346.2,85.13,345.91,139.45Z"/><path class="cls-8" d="M150.9,284.78S162.44,362.9,211.4,424c36,40.83,77.82,50.38,103.34,34.2,0,0,13.89-.45,26.68-6.25s14.59-13.38,16-64.37c0,0,9.07-19.4,30.35-25.11a9.89,9.89,0,0,0,11,5.62c8.25-1.3,54.62-30.34,67.35-46.8,0,0,11.34-14.94-8.5-16C442.13,304.53,410,329.4,410,329.4a45.71,45.71,0,0,0-31.28-38.35c-10.45-3.6-38.83-1.21-53,12.57,0,0-19.63-7.58-29.11-23.66,0,0,21.65.28,38-1.17,7.72-.68,33.95-3.35,34.4-13.27.4-9-6.43-12.31-33.59-17.51-15-2.86-37.88-8-56.09-16.81-3.86-1.86-11.29-8.29-12.77-11.1Z"/><path class="cls-9" d="M150.9,284.78S162.44,362.9,211.4,424c36,40.83,77.82,50.38,103.34,34.2,0,0,13.89-.45,26.68-6.25s14.59-13.38,16-64.37c0,0,9.07-19.4,30.35-25.11a9.89,9.89,0,0,0,11,5.62c8.25-1.3,54.62-30.34,67.35-46.8,0,0,11.34-14.94-8.5-16C442.13,304.53,410,329.4,410,329.4a45.71,45.71,0,0,0-31.28-38.35c-10.45-3.6-38.83-1.21-53,12.57,0,0-19.63-7.58-29.11-23.66,0,0,21.65.28,38-1.17,7.72-.68,33.95-3.35,34.4-13.27.4-9-6.43-12.31-33.59-17.51-15-2.86-37.88-8-56.09-16.81-3.86-1.86-11.29-8.29-12.77-11.1Z"/><path class="cls-9" d="M150.9,284.78S162.44,362.9,211.4,424c36,40.83,77.82,50.38,103.34,34.2,0,0,13.89-.45,26.68-6.25s14.59-13.38,16-64.37c0,0,9.07-19.4,30.35-25.11a9.89,9.89,0,0,0,11,5.62c8.25-1.3,54.62-30.34,67.35-46.8,0,0,11.34-14.94-8.5-16C442.13,304.53,410,329.4,410,329.4a45.71,45.71,0,0,0-31.28-38.35c-10.45-3.6-38.83-1.21-53,12.57,0,0-19.63-7.58-29.11-23.66,0,0,21.65.28,38-1.17,7.72-.68,33.95-3.35,34.4-13.27.4-9-6.43-12.31-33.59-17.51-15-2.86-37.88-8-56.09-16.81-3.86-1.86-11.29-8.29-12.77-11.1Z"/><path class="cls-10" d="M150.9,284.78S162.44,362.9,211.4,424c36,40.83,77.82,50.38,103.34,34.2,0,0,13.89-.45,26.68-6.25s14.59-13.38,16-64.37c0,0,9.07-19.4,30.35-25.11a9.89,9.89,0,0,0,11,5.62c8.25-1.3,54.62-30.34,67.35-46.8,0,0,11.34-14.94-8.5-16C442.13,304.53,410,329.4,410,329.4a45.71,45.71,0,0,0-31.28-38.35c-10.45-3.6-38.83-1.21-53,12.57,0,0-19.63-7.58-29.11-23.66,0,0,21.65.28,38-1.17,7.72-.68,33.95-3.35,34.4-13.27.4-9-6.43-12.31-33.59-17.51-15-2.86-37.88-8-56.09-16.81-3.86-1.86-11.29-8.29-12.77-11.1Z"/><path class="cls-11" d="M204.58,255.79c20-17.14,63.77,1.12,97.81,40.79s45.45,85.73,25.48,102.87-69.51.26-97.81-40.8C200.4,315.61,184.61,272.93,204.58,255.79Z"/><path class="cls-11" d="M204.58,255.79c20-17.14,63.77,1.12,97.81,40.79s45.45,85.73,25.48,102.87-68.38.26-97.81-40.8C199.6,316.17,184.61,272.93,204.58,255.79Z"/><path class="cls-12" d="M204.58,255.79c20-17.14,63.77,1.12,97.81,40.79S343.22,377.8,323.25,395s-63.53,5.44-93.19-36.3C199.78,316,184.61,272.93,204.58,255.79Z"/><path class="cls-8" d="M188.33,281s-55,8.66-99.87-4.27c-22.16-6.38-27.11,9.93-22.58,18.76,7.51,14.62,28,24.4,61.91,31.66,32.67,7,56.6,7.16,56.6,7.16"/><path class="cls-8" d="M188.33,281s-55,8.66-99.87-4.27c-22.16-6.38-27.11,9.93-22.58,18.76,7.51,14.62,28,24.4,61.91,31.66,32.67,7,56.6,7.16,56.6,7.16Z"/><path class="cls-8" d="M300.81,447.62s23.83,15.67,87.65-12.13c67.79-29.52,59.33,23,71.14,47.28,11.51,23.62,67.46,10.79,47.08-56-18.62-61-96-41.93-114.85-33.24s-71.1,32.12-88.28,23.52l-6.61,24.07Z"/><path class="cls-13" d="M300.81,447.62s23.83,15.67,87.65-12.13c67.79-29.52,59.33,23,71.14,47.28,11.51,23.62,67.46,10.79,47.08-56-18.62-61-96-41.93-114.85-33.24s-71.1,32.12-88.28,23.52l-6.61,24.07Z"/><path class="cls-14" d="M271.87,181c20,33.66,3.29,80.53-37.35,104.69s-89.79,16.45-109.8-17.2.37-74.37,41-98.52S251.86,147.33,271.87,181Z"/><ellipse class="cls-8" cx="211.67" cy="157.67" rx="25.7" ry="48.28" transform="translate(-47.25 208.86) rotate(-47.87)"/><ellipse class="cls-8" cx="135.03" cy="205.35" rx="28.53" ry="53.61" transform="translate(-52.76 46.8) rotate(-16.5)"/><ellipse class="cls-15" cx="211.67" cy="157.67" rx="25.7" ry="48.28" transform="translate(-47.25 208.86) rotate(-47.87)"/><ellipse class="cls-16" cx="211.67" cy="157.67" rx="21.62" ry="40.61" transform="translate(-47.25 208.86) rotate(-47.87)"/><ellipse class="cls-17" cx="135.03" cy="205.35" rx="28.53" ry="53.61" transform="translate(-52.76 46.8) rotate(-16.5)"/><ellipse class="cls-18" cx="135.03" cy="205.35" rx="23.87" ry="44.84" transform="translate(-52.76 46.8) rotate(-16.5)"/><path class="cls-8" d="M268.54,174.09c20,33.66,3.29,80.53-37.34,104.68s-89.8,16.46-109.81-17.2.37-74.36,41-98.51S248.53,140.43,268.54,174.09Z"/><path class="cls-8" d="M231.19,278.77c-31.61,18.8-68.38,18.31-92.57,1.31a60.26,60.26,0,0,1-16-16.54c-.43-.64-.83-1.3-1.23-2a56.58,56.58,0,0,1-4-8.24c-10.27-26.05,1.4-55,26.44-76.87q4.26-3.71,9-7.13c1.64-1.18,3.33-2.34,5.06-3.46,1.48-1,3-1.9,4.54-2.82q4.69-2.79,9.46-5.12c2.06-1,4.13-2,6.2-2.83a113,113,0,0,1,10.8-4c24.65-7.68,48.71-5.73,65.75,7.23a53.83,53.83,0,0,1,8.28,7.8,57.24,57.24,0,0,1,5.65,7.92c.26.42.51.85.74,1.29a58.77,58.77,0,0,1,4.63,10.49C284.5,218,267.27,257.32,231.19,278.77Z"/><path class="cls-19" d="M231.19,278.77c-31.61,18.8-68.38,18.31-92.57,1.31a60.26,60.26,0,0,1-16-16.54c-.43-.64-.83-1.3-1.23-2a56.58,56.58,0,0,1-4-8.24c-10.27-26.05,1.4-55,26.44-76.87q4.26-3.71,9-7.13c1.64-1.18,3.33-2.34,5.06-3.46,1.48-1,3-1.9,4.54-2.82q4.69-2.79,9.46-5.12c2.06-1,4.13-2,6.2-2.83a113,113,0,0,1,10.8-4c24.65-7.68,48.71-5.73,65.75,7.23a53.83,53.83,0,0,1,8.28,7.8,57.24,57.24,0,0,1,5.65,7.92c.26.42.51.85.74,1.29a58.77,58.77,0,0,1,4.63,10.49C284.5,218,267.27,257.32,231.19,278.77Z"/><path class="cls-11" d="M183.48,184.12C183.25,216.38,174,262,156.8,289.06c28,9.15,55.06,1.21,74.4-10.29,30.14-17.92,47.12-48.34,45.71-76.59C259.26,204.58,217.92,196.81,183.48,184.12Z"/><path class="cls-20" d="M183.48,184.12C183.25,216.38,174,262,156.8,289.06c28,9.15,55.06,1.21,74.4-10.29,30.14-17.92,47.12-48.34,45.71-76.59C259.26,204.58,217.92,196.81,183.48,184.12Z"/><path class="cls-21" d="M192,197.69a14.85,14.85,0,0,1-4.11.18,1.48,1.48,0,0,1-.91-2.49,19.54,19.54,0,0,1,6.71-4.73,1.48,1.48,0,0,1,2,1.71,15,15,0,0,1-1.58,3.82A3.14,3.14,0,0,1,192,197.69Z"/><path class="cls-22" d="M185.79,206.73c6.59-1.82,10.5-4.6,7.15-10"/><path class="cls-22" d="M202,193.68c1.19,4.29-5.07,8-9.05,3"/><path class="cls-23" d="M149.58,222.06s4.64-13.77,24.82-22.46"/><path class="cls-23" d="M200.68,180.82a36.87,36.87,0,0,1,24.72-14.73"/><path class="cls-11" d="M107.86,281a165.15,165.15,0,0,1-19.4-4.27c-22.16-6.38-27.11,9.93-22.58,18.76,4.9,9.54,15.32,17,31.4,23.09C104.24,308.79,106.87,292.08,107.86,281Z"/><path class="cls-11" d="M107.86,281a165.15,165.15,0,0,1-19.4-4.27c-4-1.16-7.4-2.64-10.34-2.48-1.41.07-2.78,1.35-4,1.67-9.85,2.66-11.6,13.11-8.29,19.57.85,1.65.17,3.7,1.35,5.23C72.87,308,84,313.55,97.28,318.57,104.24,308.79,106.87,292.08,107.86,281Z"/><path class="cls-24" d="M107.86,281a165.15,165.15,0,0,1-19.4-4.27c-4-1.16-7.4-2.64-10.34-2.48-1.41.07-2.78,1.35-4,1.67-9.85,2.66-11.6,13.11-8.29,19.57.85,1.65.17,3.7,1.35,5.23C72.87,308,84,313.55,97.28,318.57,104.24,308.79,106.87,292.08,107.86,281Z"/><g class="cls-25"><path class="cls-26" d="M527.88,258.52h0c-.18-.27-.37-.53-.57-.79s-.29-.38-.45-.56a16,16,0,0,0-1-1.81c-6.65-10.05-22.56-10.85-40.66-2.78A130.46,130.46,0,0,0,479.7,240c-.62-1.24-1.26-2.45-1.91-3.66,15.11-7.33,24.39-18.05,23-28.65a16.46,16.46,0,0,0-.86-3.4.09.09,0,0,0,0-.05c-2.2-16.26-32.94-29.31-63.5-25.17a101.83,101.83,0,0,0-16.39,3.6c-14.37-5.41-29.13-6.25-42.49-1.09-24.5,9.46-39.22,31.08-42.23,57.16-8.81,22.91-23.6,51.41-28.55,64.37-10.13,26.49,10.2,30.24,28.45,10,4.1-4.54,8.21-9.56,12.2-14.74a109,109,0,0,0,28.69,35.36c-8.51,8.62-16.11,16.87-20.42,22.85-14.35,19.94,5.51,23.23,22.43,15.18,10.76-5.12,21.58-12.14,34.16-20.17a72.89,72.89,0,0,0,46.66-4.11,53.59,53.59,0,0,0,26.76-25.7,95,95,0,0,0,14.81-8.75,90.15,90.15,0,0,0,21.4-21.32,64.7,64.7,0,0,0,3.48-5.6c.45-.82.87-1.64,1.27-2.45.5-1,1-2.06,1.38-3.08a36,36,0,0,0,2.42-8.79,24.83,24.83,0,0,0,.23-3.29A17.64,17.64,0,0,0,527.88,258.52Zm-41-2.73,1-.43Zm1.93-.8,1-.38Zm1.92-.73.91-.33Zm1.89-.66.88-.29Zm1.88-.6.83-.25Zm1.85-.54.79-.21Zm1.83-.46.74-.18Zm1.81-.41.68-.14Zm1.77-.34.63-.1Zm1.75-.27.57-.08Zm1.71-.21.5-.05Zm1.67-.14.42,0Zm1.64-.08h0Zm1.81,0h0Zm1.4.06h0ZM456.1,184.79l1.39,0Zm2.6.05,1.33.06Zm2.55.13,1.27.09Zm2.5.2,1.21.12Zm2.45.26c.38,0,.75.09,1.13.15C467,185.52,466.58,185.47,466.2,185.43Zm2.39.32,1,.17Zm2.33.39.79.16Zm8.15,2,.31.09Zm1.85.62.42.14Zm1.86.7.45.17Zm1.83.76.42.18Zm1.75.81.38.19Zm1.68.88.32.18Zm1.59.92.25.16Zm1.5,1a.91.91,0,0,1,.16.11A.91.91,0,0,0,491.13,193.82Zm1.41,1,0,0ZM454.9,184.78l-1.45,0Zm-2.63,0-1.51.06Zm-2.67.12-1.61.11Zm-8.18.78c.92-.12,1.84-.24,2.75-.34-.91.1-1.83.22-2.75.34-1.22.17-2.43.35-3.63.56C439,186.07,440.2,185.89,441.42,185.72Zm5.48-.6-1.82.18Zm-12.65,1.82q-1.69.36-3.33.75h0Q432.55,187.3,434.25,186.94Z"/></g><path class="cls-6" d="M346.47,217.57c-4.17,22.5-28.16,67.21-34.74,84.43-10.13,26.5,10.2,30.24,28.45,10,23.33-25.83,46.9-67,46.9-67Z"/><path class="cls-27" d="M346.47,217.57c-4.17,22.5-28.16,67.21-34.74,84.43-10.13,26.5,10.2,30.24,28.45,10,23.33-25.83,46.9-67,46.9-67Z"/><path class="cls-6" d="M425.76,290.53s-50.76,45.05-65.11,65,5.51,23.22,22.43,15.18c20.76-9.87,41.71-26.84,75.19-44.48Z"/><path class="cls-28" d="M425.76,290.53s-50.76,45.05-65.11,65,5.51,23.22,22.43,15.18c20.76-9.87,41.71-26.84,75.19-44.48Z"/><path class="cls-4" d="M463.9,346.41c-40.09,18-90.31-4.53-113.17-52.4s-9.2-97.71,31.78-113.54c35.26-13.62,80.26,14.52,102.2,58.42C506.18,281.88,501.31,329.64,463.9,346.41Z"/><path class="cls-29" d="M463.9,346.41c-40.09,18-90.31-4.53-113.17-52.4s-9.2-97.71,31.78-113.54c35.26-13.62,80.26,14.52,102.2,58.42C506.18,281.88,501.31,329.64,463.9,346.41Z"/><path class="cls-30" d="M463.9,346.41c-40.09,18-90.31-4.53-113.17-52.4s-9.2-97.71,31.78-113.54c35.26-13.62,80.26,14.52,102.2,58.42C506.18,281.88,501.31,329.64,463.9,346.41Z"/><path class="cls-30" d="M463.9,346.41c-40.09,18-90.31-4.53-113.17-52.4s-9.2-97.71,31.78-113.54c35.26-13.62,80.26,14.52,102.2,58.42C506.18,281.88,501.31,329.64,463.9,346.41Z"/><path class="cls-31" d="M386.16,301.85a16.46,16.46,0,0,1,.55-4.57,1.67,1.67,0,0,1,2.93-.56,22,22,0,0,1,4,8.3,1.67,1.67,0,0,1-2.27,1.94,16.84,16.84,0,0,1-3.93-2.45A3.48,3.48,0,0,1,386.16,301.85Z"/><path class="cls-32" d="M377.28,293.32c.81,7.63,3.18,12.47,9.8,9.75"/><path class="cls-32" d="M388.77,313.65c-5,.54-7.93-7.08-1.69-10.58"/><path class="cls-33" d="M532.89,257.43c-7.54-11.41-28.56-10.34-49.61,1.51,8.52,22.41,8.44,44.37,5.2,62.75a94.56,94.56,0,0,0,17-9.73C529.24,294.89,541.52,270.47,532.89,257.43Z"/><path class="cls-34" d="M532.89,257.43a13.64,13.64,0,0,0-1-1.35c6.49,13.39-5.72,36.4-28.44,52.71a94.54,94.54,0,0,1-14.25,8.48c-.21,1.49-.44,3-.7,4.42a94.56,94.56,0,0,0,17-9.73C529.24,294.89,541.52,270.47,532.89,257.43Z"/><path class="cls-6" d="M483.28,258.94c20.17-11.36,40.31-12.8,48.59-2.86a15.35,15.35,0,0,0-1-1.82c-7.54-11.4-27-10.89-48.07,1C482.93,256.65,483.06,257.7,483.28,258.94Z"/><path class="cls-35" d="M384,246.27s9.44,11.6,5.93,33.91"/><path class="cls-35" d="M425.47,327.56s-6.09-14.57-20.29-20.1"/><path class="cls-36" d="M474.06,238.86c20.14-7.06,33.39-19.75,31.7-32.28-2.21-16.26-28.77-26.09-59.33-22A95.76,95.76,0,0,0,420,192C438.19,201.67,461.34,217.64,474.06,238.86Z"/><path class="cls-6" d="M504.9,203.18a.08.08,0,0,0,0,0c-2.2-16.27-32.94-29.32-63.5-25.18a82,82,0,0,0-24.32,6.84c.91,1.63,3,7.19,3,7.19a95.76,95.76,0,0,1,26.4-7.36C474.79,180.78,499.7,189,504.9,203.18Z"/><path class="cls-21" d="M173.18,182.25c-4.89-3.26-13.7-14.1-15.32-16.37,1.48-1,3-1.9,4.54-2.82q4.69-2.79,9.46-5.12c1.68,2.62,11.31,16.49,11.77,20.24C184.14,182.32,178.62,185.87,173.18,182.25Z"/><path class="cls-21" d="M193.19,167.36c-.33,3-4.78,4.54-8,1.1-2.6-2.78-6-10.51-7.15-13.35a113,113,0,0,1,10.8-4C189.59,153.24,193.49,164.66,193.19,167.36Z"/><path class="cls-21" d="M156.14,187.74c-2.51-1-10.71-9.53-12.36-11.27q4.26-3.71,9-7.13c2.27,2.77,6.82,8.54,8,11.82C162.38,185.59,158.93,188.82,156.14,187.74Z"/><path class="cls-21" d="M142.11,251c-1.5,2.25-16.56,10.86-19.49,12.52-.43-.64-.83-1.3-1.23-2a56.58,56.58,0,0,1-4-8.24c4.26-2.18,15.62-7.86,19.38-8.31C141.39,244.46,143.78,248.53,142.11,251Z"/><path class="cls-21" d="M151.91,262.25c-.58,2.45-10.18,14.1-13.29,17.83a58.93,58.93,0,0,1-8.73-7.43c3.49-3.8,11.64-12.46,14.87-14.13C148.94,256.36,152.6,259.34,151.91,262.25Z"/><path class="cls-21" d="M113.47,323.71c1.28-2.68,6.7-17,9.76-20,3.39-3.26,7.74-1.44,7.91,1.55.14,2.48-4.32,16.63-6.3,21.23Z"/><path class="cls-21" d="M135.86,328.77c.6-5.66,1.89-16.67,3.32-19.65,2-4.23,7.09-2.95,7.87-.27.68,2.36.37,16.65.11,21.87Z"/><path class="cls-21" d="M390.05,434.81a90.11,90.11,0,0,0,3.61-16.19c1.09-10.64,7.68-15.78,9.27-5.65a75.6,75.6,0,0,1,.47,16.93Z"/><path class="cls-21" d="M437.89,431.26a24.42,24.42,0,0,0-10.18-4.07,76.29,76.29,0,0,0,2.67-11.43c1.45-10.59,8.21-15.5,9.45-5.31C440.61,416.92,439.06,425.87,437.89,431.26Z"/><path class="cls-21" d="M465.89,439.13c-3.47,5.56-10.34,11.58-14.63,15a73.31,73.31,0,0,0-3.8-10.66,71,71,0,0,0,7.74-6.17C463,430,471.32,430.42,465.89,439.13Z"/><path class="cls-21" d="M416.33,386.22c1.16,4.35,3.44,14,3.14,21.47-.41,10.25-7.55,5.9-9.85-4.54a88,88,0,0,0-4.82-14.22Z"/><path class="cls-21" d="M466.12,386.83c-2.44,8.8-5.86,19.87-8.74,24.64-5.33,8.77-9.47,1.51-6.44-8.74a174.34,174.34,0,0,0,3.76-18.2A83.67,83.67,0,0,1,466.12,386.83Z"/><path class="cls-21" d="M273.91,185.87c-4.74,1.68-16.25,5.64-20,5.6-4.7-.05-6.54-4.39-4.56-6.65,1.62-1.85,15.18-7.52,19.88-9.44A58.77,58.77,0,0,1,273.91,185.87Z"/><path class="cls-21" d="M262.89,166.17c-4.43,3.66-12.09,9.77-15.14,10.87-4.43,1.6-7.66-1.83-6.6-4.62.76-2,8.86-9.76,13.46-14A53.83,53.83,0,0,1,262.89,166.17Z"/><ellipse class="cls-37" cx="157.83" cy="231.14" rx="12.95" ry="8.52" transform="translate(-102.94 129.48) rotate(-34.38)"/><ellipse class="cls-37" cx="234.06" cy="180.82" rx="12.95" ry="8.52" transform="translate(-61.22 163.74) rotate(-34.38)"/><ellipse class="cls-37" cx="361.37" cy="252.47" rx="8.52" ry="12.95" transform="translate(-20.09 31.53) rotate(-4.86)"/><ellipse class="cls-37" cx="416.21" cy="342.1" rx="8.52" ry="12.95" transform="translate(-122.43 353.54) rotate(-40.64)"/><path class="cls-38" d="M108.5,245.66s11-9,33.51-11.34"/><path class="cls-39" d="M143.49,241s-18.24,5.84-31.51,20.22"/><path class="cls-39" d="M147.12,248.26s-15.68,9.88-26.13,22.36"/><path class="cls-38" d="M264.8,144.73s-13.48,4.62-27.29,22.5"/><path class="cls-39" d="M242.37,172s14.58-12.42,33.78-16.13"/><path class="cls-39" d="M246.66,178.92s16.65-8.12,32.77-10.43"/><g class="cls-40"><path class="cls-41" d="M429.75,367.41s1.19-10.15-6.39-23.39"/><path class="cls-42" d="M418.62,346.29a54.65,54.65,0,0,1,.06,26.41"/><path class="cls-42" d="M412.62,347.7s.14,13.06-3.44,24.49"/><path class="cls-38" d="M343.92,215s8.38,5.34,15.66,20.67"/><path class="cls-39" d="M353.85,239.34S349.68,230,334,222.85"/><path class="cls-39" d="M348.23,245.25A51.89,51.89,0,0,0,333,234.68"/></g><path class="cls-37" d="M92.93,293.63c-1.11,2.59-1.48,6.58-4.48,7.71s-5.45-1.22-6.36-3.62-.7-10.16,5.19-11.58C91.82,285.05,95.1,288.59,92.93,293.63Z"/><path class="cls-43" d="M92.93,293.63c-1.11,2.59-1.48,6.58-4.48,7.71s-5.45-1.22-6.36-3.62-.7-10.16,5.19-11.58C91.82,285.05,95.1,288.59,92.93,293.63Z"/><path class="cls-37" d="M77.47,286.31c1,.85,2.7,1.56,2.79,3a2.37,2.37,0,0,1-2.47,2.31c-1.18.07-4.57-1.08-4.39-3.87C73.53,285.63,75.54,284.67,77.47,286.31Z"/><path class="cls-44" d="M77.47,286.31c1,.85,2.7,1.56,2.79,3a2.37,2.37,0,0,1-2.47,2.31c-1.18.07-4.57-1.08-4.39-3.87C73.53,285.63,75.54,284.67,77.47,286.31Z"/><path class="cls-37" d="M82.9,281.37c.6,1,1.84,2,1.51,3.3a2.08,2.08,0,0,1-2.69,1.26c-1-.26-3.54-2.15-2.63-4.44C79.79,279.73,81.74,279.47,82.9,281.37Z"/><path class="cls-45" d="M82.9,281.37c.6,1,1.84,2,1.51,3.3a2.08,2.08,0,0,1-2.69,1.26c-1-.26-3.54-2.15-2.63-4.44C79.79,279.73,81.74,279.47,82.9,281.37Z"/><path class="cls-37" d="M76,294.23c1.14,0,2.71-.39,3.57.59a2.08,2.08,0,0,1-.45,2.94c-.79.69-3.77,1.73-5.16-.31C72.91,295.89,73.79,294.13,76,294.23Z"/><path class="cls-46" d="M76,294.23c1.14,0,2.71-.39,3.57.59a2.08,2.08,0,0,1-.45,2.94c-.79.69-3.77,1.73-5.16-.31C72.91,295.89,73.79,294.13,76,294.23Z"/><path class="cls-47" d="M367.47,394.93v0Z"/><path class="cls-48" d="M367.46,393.73c0,.4,0,.81,0,1.2C367.47,394.53,367.47,394.13,367.46,393.73Z"/><path class="cls-48" d="M367.47,395.64v0Z"/><path class="cls-8" d="M358.57,357.45c-14.75,3.68-15.86,33.12-19.79,54.41-1.75-6.71-6.16-16.72-9-23.09-12.5-28.18-45.38-37.59-68.75-19.69S242.87,413.67,247.21,428c4.67,15.37,13.78,28.35,20.45,32.32,3.46,2.06,15.67,12.46,50.83-1.3,7.32-2.86,24.36,6.19,31.27,3.24,11-4.69,11-19.43,19.52-62.51C373.58,378.06,373.65,353.68,358.57,357.45Z"/><path class="cls-11" d="M369,401c.09-.43.17-.84.25-1.28,4.3-21.64,4.37-46-10.71-42.25-3.75.93-8.26,3.53-10.51,7.23-4.34,7.12-4.77,18.32-6.51,29.66A103.65,103.65,0,0,0,369,401Z"/><path class="cls-11" d="M369,401c.09-.43.17-.84.25-1.28,4.3-21.64,4.37-46-10.71-42.25-3.75.93-8.26,3.53-10.51,7.23-4.34,7.12-4.77,18.32-6.51,29.66A103.65,103.65,0,0,0,369,401Z"/><path class="cls-21" d="M266.84,417.6C247,433.12,228.8,434.91,222,435q-5.34-5.06-10.56-11c-.72-.91-1.44-1.81-2.14-2.72,6.27.47,27.36.86,50.69-12.07C268.58,404.44,278.93,408.14,266.84,417.6Z"/><path class="cls-21" d="M287.17,433.4c-11.45,16.34-23.68,23-29.85,25.54a107.21,107.21,0,0,1-15.82-8.53,85.23,85.23,0,0,0,36.32-22.5C284.68,420.8,296,420.83,287.17,433.4Z"/><path class="cls-49" d="M369,401c4.25-20.19,3.26-35.57.36-36.09s-9.24,8.61-12.88,34C360,399.68,364.61,400.49,369,401Z"/><path class="cls-50" d="M367.36,411c-4.74,24.78-8.87,44.39-12.23,43.78s-2.45-20.87.05-46c2.78-27.88,11.94-46.45,14.18-43.87C372.41,368.4,373.47,379,367.36,411Z"/><path class="cls-37" d="M368.37,388.76c-.63,4.16-2.29,7.35-3.69,7.14s-.87-3.56-.24-7.72,1.17-6.42,2.58-6.2S369,384.61,368.37,388.76Z"/><path class="cls-37" d="M370.65,378c-.16,1.78-.76,3.17-1.34,3.12s-.44-1.49-.27-3.26.33-2.74.9-2.69S370.82,376.23,370.65,378Z"/><path class="cls-51" d="M368.37,388.76c-.63,4.16-2.29,7.35-3.69,7.14s-.87-3.56-.24-7.72,1.17-6.42,2.58-6.2S369,384.61,368.37,388.76Z"/><path class="cls-52" d="M370.65,378c-.16,1.78-.76,3.17-1.34,3.12s-.44-1.49-.27-3.26.33-2.74.9-2.69S370.82,376.23,370.65,378Z"/><path class="cls-37" d="M369.27,376.41c-.21,2.28-1,4.08-1.73,4s-.56-1.91-.35-4.19.42-3.53,1.17-3.46S369.48,374.13,369.27,376.41Z"/><path class="cls-53" d="M369.27,376.41c-.21,2.28-1,4.08-1.73,4s-.56-1.91-.35-4.19.42-3.53,1.17-3.46S369.48,374.13,369.27,376.41Z"/><path class="cls-37" d="M367.43,377.22c-.21,2.28-1,4.07-1.79,4s-.59-1.91-.38-4.2.43-3.52,1.2-3.45S367.64,374.93,367.43,377.22Z"/><path class="cls-54" d="M367.43,377.22c-.21,2.28-1,4.07-1.79,4s-.59-1.91-.38-4.2.43-3.52,1.2-3.45S367.64,374.93,367.43,377.22Z"/></g></g></g></svg>