<?xml version="1.0" standalone="no"?><!DOCTYPE svg PUBLIC "-//W3C//DTD SVG 1.1//EN" "http://www.w3.org/Graphics/SVG/1.1/DTD/svg11.dtd"><svg t="1680024703131" class="icon" viewBox="0 0 1027 1024" version="1.1" xmlns="http://www.w3.org/2000/svg" p-id="2761" xmlns:xlink="http://www.w3.org/1999/xlink" width="30.5859375" height="30"><path d="M511.360799 1022.721598C230.11236 1022.721598 0 792.609238 0 511.360799S230.11236 0 511.360799 0s511.360799 230.11236 511.360799 511.360799-230.11236 511.360799-511.360799 511.360799z m0-925.563046c-230.11236 0-414.202247 184.089888-414.202247 414.202247s184.089888 414.202247 414.202247 414.202247 414.202247-184.089888 414.202247-414.202247-184.089888-414.202247-414.202247-414.202247z" fill="#1296db" p-id="2762"></path><path d="M869.313358 797.722846l148.294632 148.294632c15.340824 25.56804 10.227216 51.13608-10.227216 66.476904-20.454432 15.340824-40.908864 15.340824-56.249688 0l-148.294632-148.294632c-15.340824-25.56804-10.227216-51.13608 10.227216-66.476904 10.227216-15.340824 35.795256-15.340824 56.249688 0z" fill="#1296db" p-id="2763"></path></svg>