<?xml version="1.0" standalone="no"?><!DOCTYPE svg PUBLIC "-//W3C//DTD SVG 1.1//EN" "http://www.w3.org/Graphics/SVG/1.1/DTD/svg11.dtd"><svg t="1681889972989" class="icon" viewBox="0 0 1024 1024" version="1.1" xmlns="http://www.w3.org/2000/svg" p-id="4270" xmlns:xlink="http://www.w3.org/1999/xlink" width="200" height="200"><path d="M512 401.297297C262.918919 401.297297 55.351351 509.509189 55.351351 914.11373 55.351351 974.792649 92.533622 1024 138.378378 1024h747.243244c45.858595 0 83.027027-49.207351 83.027027-109.88627C968.648649 509.509189 761.081081 401.297297 512 401.297297z" fill="#44B2B6" p-id="4271"></path><path d="M318.27027 428.972973l124.540541 207.567568 83.027027-124.540541z" fill="#FFFFFF" p-id="4272"></path><path d="M512 512l83.027027 124.540541 124.540541-207.567568z" fill="#FFFFFF" p-id="4273"></path><path d="M512 262.918919m-249.081081 0a249.081081 249.081081 0 1 0 498.162162 0 249.081081 249.081081 0 1 0-498.162162 0Z" fill="#F1CDB0" p-id="4274"></path><path d="M769.563676 209.933838a259.473297 259.473297 0 0 0-6.462271-25.198703C729.807568 77.699459 629.967568 0 512 0c-7.804541 0-15.498378 0.498162-23.123027 1.162378-5.82573 0.553514-11.58227 1.328432-17.283459 2.255568l-2.56 0.387459c-13.50573 2.380108-26.651676 5.770378-39.424 10.032433h-1.314595c-99.756973 33.529081-172.557838 125.135568-178.49427 234.717405a293.306811 293.306811 0 0 0 77.837837-31.411892c43.976649-25.392432 77.491892-58.866162 96.795676-92.60281h8.690162c42.772757 88.631351 157.848216 152.216216 293.362162 152.216216 16.328649 0 32.242162-1.203892 47.892757-2.975135 0.138378-3.639351 0.539676-7.195676 0.539676-10.862703 0-18.155243-1.840432-35.867676-5.355243-52.985081z" fill="#AB6125" p-id="4275"></path></svg>